<svg xmlns:xlink="http://www.w3.org/1999/xlink" xmlns="http://www.w3.org/2000/svg" >
<use x="0" y="0" width="100%" height="100%" xlink:href="t-0retg-cres-v.svg#via" /><g id="fig">
   <rect id="5" width="13.500" height="17.300" x="30.314" y="485.355"  fill="#00aa88" stroke="#784421" fill-opacity="0.5" stroke-width="1.0px"/>

   <rect id="6" width="17.000" height="19.600" x="244.502" y="352.510"  fill="#c8ab37" stroke="#6600ff" fill-opacity="0.5" stroke-width="1.0px"/>

   <rect id="7" width="20.500" height="21.900" x="208.111" y="364.721"  fill="#00aa88" stroke="#784421" fill-opacity="0.5" stroke-width="1.0px"/>

   <rect id="8" width="24.000" height="24.200" x="280.227" y="502.669"  fill="#c8ab37" stroke="#6600ff" fill-opacity="0.5" stroke-width="1.0px"/>

   <rect id="9" width="27.500" height="26.500" x="445.428" y="161.240"  fill="#00aa88" stroke="#784421" fill-opacity="0.5" stroke-width="1.0px"/>

   <rect id="10" width="31.000" height="28.800" x="119.685" y="216.875"  fill="#c8ab37" stroke="#6600ff" fill-opacity="0.5" stroke-width="1.0px"/>

   <rect id="11" width="34.500" height="31.100" x="331.331" y="184.813"  fill="#00aa88" stroke="#784421" fill-opacity="0.5" stroke-width="1.0px"/>

   <rect id="12" width="38.000" height="33.400" x="394.455" y="97.673"  fill="#c8ab37" stroke="#6600ff" fill-opacity="0.5" stroke-width="1.0px"/>

   <rect id="13" width="41.500" height="35.700" x="71.205" y="263.726"  fill="#00aa88" stroke="#784421" fill-opacity="0.5" stroke-width="1.0px"/>

   <rect id="14" width="45.000" height="38.000" x="325.388" y="145.745"  fill="#c8ab37" stroke="#6600ff" fill-opacity="0.5" stroke-width="1.0px"/>

   <rect id="15" width="48.500" height="40.300" x="30.091" y="416.486"  fill="#00aa88" stroke="#784421" fill-opacity="0.5" stroke-width="1.0px"/>

   <rect id="16" width="52.000" height="42.600" x="266.954" y="506.927"  fill="#c8ab37" stroke="#6600ff" fill-opacity="0.5" stroke-width="1.0px"/>

   <rect id="17" width="55.500" height="44.900" x="390.496" y="330.293"  fill="#00aa88" stroke="#784421" fill-opacity="0.5" stroke-width="1.0px"/>

   <rect id="18" width="59.000" height="47.200" x="415.274" y="446.868"  fill="#c8ab37" stroke="#6600ff" fill-opacity="0.5" stroke-width="1.0px"/>

   <rect id="19" width="62.500" height="49.500" x="131.908" y="217.633"  fill="#00aa88" stroke="#784421" fill-opacity="0.5" stroke-width="1.0px"/>

   <rect id="20" width="66.000" height="51.800" x="455.124" y="460.386"  fill="#c8ab37" stroke="#6600ff" fill-opacity="0.5" stroke-width="1.0px"/>

   <rect id="21" width="69.500" height="54.100" x="410.369" y="481.561"  fill="#00aa88" stroke="#784421" fill-opacity="0.5" stroke-width="1.0px"/>

   <rect id="22" width="69.500" height="56.400" x="294.480" y="75.815"  fill="#c8ab37" stroke="#6600ff" fill-opacity="0.5" stroke-width="1.0px"/>

   <rect id="23" width="69.500" height="58.700" x="433.835" y="156.802"  fill="#00aa88" stroke="#784421" fill-opacity="0.5" stroke-width="1.0px"/>

   <rect id="24" width="69.500" height="61.000" x="498.141" y="171.984"  fill="#c8ab37" stroke="#6600ff" fill-opacity="0.5" stroke-width="1.0px"/>

   <rect id="25" width="69.500" height="63.300" x="412.572" y="367.198"  fill="#00aa88" stroke="#784421" fill-opacity="0.5" stroke-width="1.0px"/>

   <rect id="26" width="69.500" height="65.600" x="393.851" y="49.785"  fill="#c8ab37" stroke="#6600ff" fill-opacity="0.5" stroke-width="1.0px"/>

   <rect id="27" width="69.500" height="67.900" x="198.288" y="354.696"  fill="#00aa88" stroke="#784421" fill-opacity="0.5" stroke-width="1.0px"/>

   <rect id="28" width="69.500" height="70.200" x="92.070" y="425.837"  fill="#c8ab37" stroke="#6600ff" fill-opacity="0.5" stroke-width="1.0px"/>

   <rect id="29" width="69.500" height="70.200" x="304.656" y="167.835"  fill="#00aa88" stroke="#784421" fill-opacity="0.5" stroke-width="1.0px"/>

</g>
</svg>