<svg xmlns:xlink="http://www.w3.org/1999/xlink" xmlns="http://www.w3.org/2000/svg" >
<use x="0" y="0" width="100%" height="100%" xlink:href="t-1retg-cres-2-v.svg#via" /><g id="fig">
   <rect id="5" width="13.500" height="17.300" x="377.790" y="636.410"  fill="#00aa88" stroke="#784421" fill-opacity="0.5" stroke-width="1.0px"/>

   <rect id="6" width="17.000" height="19.600" x="308.276" y="245.217"  fill="#c8ab37" stroke="#6600ff" fill-opacity="0.5" stroke-width="1.0px"/>

   <rect id="7" width="20.500" height="21.900" x="143.723" y="234.562"  fill="#00aa88" stroke="#784421" fill-opacity="0.5" stroke-width="1.0px"/>

   <rect id="8" width="24.000" height="24.200" x="107.422" y="523.540"  fill="#c8ab37" stroke="#6600ff" fill-opacity="0.5" stroke-width="1.0px"/>

   <rect id="9" width="27.500" height="26.500" x="124.850" y="400.841"  fill="#00aa88" stroke="#784421" fill-opacity="0.5" stroke-width="1.0px"/>

   <rect id="10" width="31.000" height="28.800" x="223.481" y="188.211"  fill="#c8ab37" stroke="#6600ff" fill-opacity="0.5" stroke-width="1.0px"/>

   <rect id="11" width="34.500" height="31.100" x="666.151" y="261.426"  fill="#00aa88" stroke="#784421" fill-opacity="0.5" stroke-width="1.0px"/>

   <rect id="12" width="38.000" height="33.400" x="314.593" y="437.092"  fill="#c8ab37" stroke="#6600ff" fill-opacity="0.5" stroke-width="1.0px"/>

   <rect id="13" width="41.500" height="35.700" x="456.464" y="172.064"  fill="#00aa88" stroke="#784421" fill-opacity="0.5" stroke-width="1.0px"/>

   <rect id="14" width="45.000" height="38.000" x="148.185" y="644.715"  fill="#c8ab37" stroke="#6600ff" fill-opacity="0.5" stroke-width="1.0px"/>

   <rect id="15" width="48.500" height="40.300" x="301.017" y="328.837"  fill="#00aa88" stroke="#784421" fill-opacity="0.5" stroke-width="1.0px"/>

   <rect id="16" width="52.000" height="42.600" x="207.819" y="517.402"  fill="#c8ab37" stroke="#6600ff" fill-opacity="0.5" stroke-width="1.0px"/>

   <rect id="17" width="55.500" height="44.900" x="160.601" y="396.539"  fill="#00aa88" stroke="#784421" fill-opacity="0.5" stroke-width="1.0px"/>

   <rect id="18" width="59.000" height="47.200" x="123.960" y="406.155"  fill="#c8ab37" stroke="#6600ff" fill-opacity="0.5" stroke-width="1.0px"/>

   <rect id="19" width="62.500" height="49.500" x="417.176" y="465.966"  fill="#00aa88" stroke="#784421" fill-opacity="0.5" stroke-width="1.0px"/>

   <rect id="20" width="66.000" height="51.800" x="567.860" y="681.481"  fill="#c8ab37" stroke="#6600ff" fill-opacity="0.5" stroke-width="1.0px"/>

   <rect id="21" width="69.500" height="54.100" x="59.188" y="347.465"  fill="#00aa88" stroke="#784421" fill-opacity="0.5" stroke-width="1.0px"/>

   <rect id="22" width="73.000" height="56.400" x="480.670" y="167.173"  fill="#c8ab37" stroke="#6600ff" fill-opacity="0.5" stroke-width="1.0px"/>

   <rect id="23" width="76.500" height="58.700" x="671.958" y="89.372"  fill="#00aa88" stroke="#784421" fill-opacity="0.5" stroke-width="1.0px"/>

   <rect id="24" width="80.000" height="61.000" x="583.951" y="164.299"  fill="#c8ab37" stroke="#6600ff" fill-opacity="0.5" stroke-width="1.0px"/>

</g>
</svg>