<svg xmlns:xlink="http://www.w3.org/1999/xlink" xmlns="http://www.w3.org/2000/svg" >
<use x="0" y="0" width="100%" height="100%" xlink:href="t-0retg-decres-v.svg#via" /><g id="fig">
   <rect id="5" width="67.200" height="53.400" x="289.462" y="146.017"  fill="#ffcc00" stroke="#c87137" fill-opacity="0.5" stroke-width="1.0px"/>

   <rect id="6" width="64.400" height="51.800" x="471.609" y="214.601"  fill="#c8ab37" stroke="#800000" fill-opacity="0.5" stroke-width="1.0px"/>

   <rect id="7" width="61.600" height="50.200" x="171.849" y="121.415"  fill="#ffcc00" stroke="#c87137" fill-opacity="0.5" stroke-width="1.0px"/>

   <rect id="8" width="58.800" height="48.600" x="173.257" y="269.375"  fill="#c8ab37" stroke="#800000" fill-opacity="0.5" stroke-width="1.0px"/>

   <rect id="9" width="56.000" height="47.000" x="272.078" y="184.082"  fill="#ffcc00" stroke="#c87137" fill-opacity="0.5" stroke-width="1.0px"/>

   <rect id="10" width="53.200" height="45.400" x="470.255" y="270.029"  fill="#c8ab37" stroke="#800000" fill-opacity="0.5" stroke-width="1.0px"/>

   <rect id="11" width="50.400" height="43.800" x="50.070" y="97.626"  fill="#ffcc00" stroke="#c87137" fill-opacity="0.5" stroke-width="1.0px"/>

   <rect id="12" width="47.600" height="42.200" x="190.301" y="83.453"  fill="#c8ab37" stroke="#800000" fill-opacity="0.5" stroke-width="1.0px"/>

   <rect id="13" width="44.800" height="40.600" x="436.335" y="447.809"  fill="#ffcc00" stroke="#c87137" fill-opacity="0.5" stroke-width="1.0px"/>

   <rect id="14" width="42.000" height="39.000" x="70.240" y="28.831"  fill="#c8ab37" stroke="#800000" fill-opacity="0.5" stroke-width="1.0px"/>

   <rect id="15" width="39.200" height="37.400" x="408.298" y="424.593"  fill="#ffcc00" stroke="#c87137" fill-opacity="0.5" stroke-width="1.0px"/>

   <rect id="16" width="36.400" height="35.800" x="35.154" y="30.865"  fill="#c8ab37" stroke="#800000" fill-opacity="0.5" stroke-width="1.0px"/>

   <rect id="17" width="33.600" height="34.200" x="339.860" y="418.108"  fill="#ffcc00" stroke="#c87137" fill-opacity="0.5" stroke-width="1.0px"/>

   <rect id="18" width="30.800" height="32.600" x="97.420" y="138.380"  fill="#c8ab37" stroke="#800000" fill-opacity="0.5" stroke-width="1.0px"/>

   <rect id="19" width="28.000" height="31.000" x="240.162" y="225.732"  fill="#ffcc00" stroke="#c87137" fill-opacity="0.5" stroke-width="1.0px"/>

   <rect id="20" width="25.200" height="29.400" x="221.298" y="153.942"  fill="#c8ab37" stroke="#800000" fill-opacity="0.5" stroke-width="1.0px"/>

   <rect id="21" width="22.400" height="27.800" x="85.720" y="320.707"  fill="#ffcc00" stroke="#c87137" fill-opacity="0.5" stroke-width="1.0px"/>

   <rect id="22" width="19.600" height="26.200" x="312.812" y="440.038"  fill="#c8ab37" stroke="#800000" fill-opacity="0.5" stroke-width="1.0px"/>

   <rect id="23" width="16.800" height="24.600" x="486.675" y="190.889"  fill="#ffcc00" stroke="#c87137" fill-opacity="0.5" stroke-width="1.0px"/>

   <rect id="24" width="14.000" height="23.000" x="277.087" y="101.767"  fill="#c8ab37" stroke="#800000" fill-opacity="0.5" stroke-width="1.0px"/>

   <rect id="25" width="14.000" height="21.400" x="170.457" y="72.970"  fill="#ffcc00" stroke="#c87137" fill-opacity="0.5" stroke-width="1.0px"/>

   <rect id="26" width="14.000" height="19.800" x="505.104" y="393.939"  fill="#c8ab37" stroke="#800000" fill-opacity="0.5" stroke-width="1.0px"/>

   <rect id="27" width="14.000" height="18.200" x="70.440" y="475.209"  fill="#ffcc00" stroke="#c87137" fill-opacity="0.5" stroke-width="1.0px"/>

   <rect id="28" width="14.000" height="16.600" x="464.146" y="17.519"  fill="#c8ab37" stroke="#800000" fill-opacity="0.5" stroke-width="1.0px"/>

   <rect id="29" width="14.000" height="15.000" x="20.515" y="416.915"  fill="#ffcc00" stroke="#c87137" fill-opacity="0.5" stroke-width="1.0px"/>

</g>
</svg>