<?xml version="1.0" encoding="UTF-8" standalone="no"?>
<svg width="800" height="600" xmlns="http://www.w3.org/2000/svg">
  <!-- Gerado pelo programa ted -->
  <rect x="23.79" y="10.08" width="67.20" height="53.40" stroke="#c87137" fill="#ffcc00" />
  <rect x="320.72" y="37.91" width="64.40" height="51.80" stroke="#800000" fill="#c8ab37" />
  <rect x="460.85" y="425.91" width="61.60" height="50.20" stroke="#c87137" fill="#ffcc00" />
  <rect x="359.10" y="424.35" width="58.80" height="48.60" stroke="#800000" fill="#c8ab37" />
  <rect x="500.72" y="239.42" width="56.00" height="47.00" stroke="#c87137" fill="#ffcc00" />
  <rect x="92.06" y="295.74" width="53.20" height="45.40" stroke="#800000" fill="#c8ab37" />
  <rect x="202.31" y="63.61" width="50.40" height="43.80" stroke="#c87137" fill="#ffcc00" />
  <rect x="383.52" y="16.66" width="47.60" height="42.20" stroke="#800000" fill="#c8ab37" />
  <rect x="456.56" y="445.76" width="44.80" height="40.60" stroke="#c87137" fill="#ffcc00" />
  <rect x="319.86" y="168.71" width="42.00" height="39.00" stroke="#800000" fill="#c8ab37" />
  <rect x="379.64" y="281.80" width="39.20" height="37.40" stroke="#c87137" fill="#ffcc00" />
  <rect x="473.36" y="157.96" width="36.40" height="35.80" stroke="#800000" fill="#c8ab37" />
  <rect x="158.04" y="172.02" width="33.60" height="34.20" stroke="#c87137" fill="#ffcc00" />
  <rect x="396.57" y="55.51" width="30.80" height="32.60" stroke="#800000" fill="#c8ab37" />
  <rect x="462.61" y="117.65" width="28.00" height="31.00" stroke="#c87137" fill="#ffcc00" />
  <rect x="287.52" y="129.64" width="25.20" height="29.40" stroke="#800000" fill="#c8ab37" />
  <rect x="320.61" y="248.57" width="22.40" height="27.80" stroke="#c87137" fill="#ffcc00" />
  <rect x="314.09" y="446.93" width="19.60" height="26.20" stroke="#800000" fill="#c8ab37" />
  <rect x="348.94" y="448.37" width="16.80" height="24.60" stroke="#c87137" fill="#ffcc00" />
  <rect x="151.07" y="136.08" width="14.00" height="23.00" stroke="#800000" fill="#c8ab37" />
  <rect x="168.29" y="253.09" width="14.00" height="21.40" stroke="#c87137" fill="#ffcc00" />
  <rect x="212.69" y="323.82" width="14.00" height="19.80" stroke="#800000" fill="#c8ab37" />
  <rect x="230.50" y="271.27" width="14.00" height="18.20" stroke="#c87137" fill="#ffcc00" />
  <rect x="187.96" y="254.38" width="14.00" height="16.60" stroke="#800000" fill="#c8ab37" />
  <rect x="300.76" y="45.41" width="14.00" height="15.00" stroke="#c87137" fill="#ffcc00" />
</svg>
