<?xml version="1.0" encoding="UTF-8" standalone="no"?>
<svg width="800" height="600" xmlns="http://www.w3.org/2000/svg">
  <!-- Gerado pelo programa ted -->
  <rect x="444.73" y="391.10" width="13.50" height="17.30" stroke="#784421" fill="#00aa88" />
  <rect x="110.97" y="351.76" width="17.00" height="19.60" stroke="#6600ff" fill="#c8ab37" />
  <rect x="310.56" y="48.49" width="20.50" height="21.90" stroke="#784421" fill="#00aa88" />
  <rect x="575.00" y="457.37" width="24.00" height="24.20" stroke="#6600ff" fill="#c8ab37" />
  <rect x="511.93" y="412.28" width="27.50" height="26.50" stroke="#784421" fill="#00aa88" />
  <rect x="529.17" y="497.93" width="31.00" height="28.80" stroke="#6600ff" fill="#c8ab37" />
  <rect x="495.61" y="587.09" width="34.50" height="31.10" stroke="#784421" fill="#00aa88" />
  <rect x="611.58" y="257.55" width="38.00" height="33.40" stroke="#6600ff" fill="#c8ab37" />
  <rect x="252.00" y="364.08" width="41.50" height="35.70" stroke="#784421" fill="#00aa88" />
  <rect x="555.70" y="618.67" width="45.00" height="38.00" stroke="#6600ff" fill="#c8ab37" />
  <rect x="241.70" y="66.06" width="48.50" height="40.30" stroke="#784421" fill="#00aa88" />
  <rect x="279.71" y="572.52" width="52.00" height="42.60" stroke="#6600ff" fill="#c8ab37" />
  <rect x="89.01" y="156.37" width="55.50" height="44.90" stroke="#784421" fill="#00aa88" />
  <rect x="189.54" y="144.84" width="59.00" height="47.20" stroke="#6600ff" fill="#c8ab37" />
  <rect x="659.85" y="297.03" width="62.50" height="49.50" stroke="#784421" fill="#00aa88" />
  <rect x="103.03" y="560.03" width="66.00" height="51.80" stroke="#6600ff" fill="#c8ab37" />
  <rect x="514.11" y="275.25" width="69.50" height="54.10" stroke="#784421" fill="#00aa88" />
  <rect x="486.62" y="364.91" width="73.00" height="56.40" stroke="#6600ff" fill="#c8ab37" />
  <rect x="595.07" y="157.24" width="76.50" height="58.70" stroke="#784421" fill="#00aa88" />
  <rect x="202.40" y="534.64" width="80.00" height="61.00" stroke="#6600ff" fill="#c8ab37" />
</svg>
