<?xml version="1.0" encoding="UTF-8" standalone="no"?>
<svg width="800" height="600" xmlns="http://www.w3.org/2000/svg">
  <!-- Gerado pelo programa ted -->
  <rect x="505.65" y="120.37" width="13.50" height="17.30" stroke="#784421" fill="#00aa88" />
  <rect x="145.31" y="63.70" width="17.00" height="19.60" stroke="#6600ff" fill="#c8ab37" />
  <rect x="166.30" y="86.21" width="20.50" height="21.90" stroke="#784421" fill="#00aa88" />
  <rect x="462.14" y="353.19" width="24.00" height="24.20" stroke="#6600ff" fill="#c8ab37" />
  <rect x="220.32" y="480.49" width="27.50" height="26.50" stroke="#784421" fill="#00aa88" />
  <rect x="292.45" y="153.12" width="31.00" height="28.80" stroke="#6600ff" fill="#c8ab37" />
  <rect x="243.88" y="214.61" width="34.50" height="31.10" stroke="#784421" fill="#00aa88" />
  <rect x="21.87" y="404.65" width="38.00" height="33.40" stroke="#6600ff" fill="#c8ab37" />
  <rect x="257.18" y="86.89" width="41.50" height="35.70" stroke="#784421" fill="#00aa88" />
  <rect x="484.47" y="254.85" width="45.00" height="38.00" stroke="#6600ff" fill="#c8ab37" />
  <rect x="385.64" y="111.78" width="48.50" height="40.30" stroke="#784421" fill="#00aa88" />
  <rect x="359.35" y="84.56" width="52.00" height="42.60" stroke="#6600ff" fill="#c8ab37" />
  <rect x="64.49" y="105.15" width="55.50" height="44.90" stroke="#784421" fill="#00aa88" />
  <rect x="197.79" y="213.67" width="59.00" height="47.20" stroke="#6600ff" fill="#c8ab37" />
  <rect x="268.84" y="153.54" width="62.50" height="49.50" stroke="#784421" fill="#00aa88" />
  <rect x="15.41" y="154.94" width="66.00" height="51.80" stroke="#6600ff" fill="#c8ab37" />
  <rect x="426.48" y="107.07" width="69.50" height="54.10" stroke="#784421" fill="#00aa88" />
  <rect x="447.76" y="255.26" width="69.50" height="56.40" stroke="#6600ff" fill="#c8ab37" />
  <rect x="97.76" y="381.32" width="69.50" height="58.70" stroke="#784421" fill="#00aa88" />
  <rect x="137.24" y="58.52" width="69.50" height="61.00" stroke="#6600ff" fill="#c8ab37" />
  <rect x="225.28" y="213.79" width="69.50" height="63.30" stroke="#784421" fill="#00aa88" />
  <rect x="332.07" y="125.91" width="69.50" height="65.60" stroke="#6600ff" fill="#c8ab37" />
  <rect x="507.60" y="291.29" width="69.50" height="67.90" stroke="#784421" fill="#00aa88" />
  <rect x="292.75" y="170.65" width="69.50" height="70.20" stroke="#6600ff" fill="#c8ab37" />
  <rect x="82.30" y="360.10" width="69.50" height="70.20" stroke="#784421" fill="#00aa88" />
</svg>
