<?xml version="1.0" encoding="UTF-8" standalone="no"?>
<svg width="800" height="600" xmlns="http://www.w3.org/2000/svg">
  <!-- Gerado pelo programa ted -->
  <circle cx="164.12" cy="160.31" r="14.25" stroke="#784421" fill="#00aa88" />
  <rect x="455.04" y="117.00" width="28.50" height="27.70" stroke="#784421" fill="#00aa88" />
  <circle cx="446.51" cy="88.94" r="16.00" stroke="#6600ff" fill="#c8ab37" />
  <rect x="36.92" y="213.49" width="32.00" height="30.40" stroke="#6600ff" fill="#c8ab37" />
  <circle cx="428.11" cy="279.57" r="17.75" stroke="#784421" fill="#00aa88" />
  <rect x="123.22" y="385.81" width="35.50" height="33.10" stroke="#784421" fill="#00aa88" />
  <circle cx="211.89" cy="106.31" r="19.50" stroke="#6600ff" fill="#c8ab37" />
  <rect x="25.65" y="18.63" width="39.00" height="35.80" stroke="#6600ff" fill="#c8ab37" />
  <circle cx="273.77" cy="132.27" r="21.25" stroke="#784421" fill="#00aa88" />
  <rect x="463.50" y="70.58" width="42.50" height="38.50" stroke="#784421" fill="#00aa88" />
  <circle cx="277.39" cy="206.64" r="23.00" stroke="#6600ff" fill="#c8ab37" />
  <rect x="438.76" y="499.97" width="46.00" height="41.20" stroke="#6600ff" fill="#c8ab37" />
  <circle cx="220.16" cy="173.22" r="24.75" stroke="#784421" fill="#00aa88" />
  <rect x="197.30" y="291.42" width="49.50" height="43.90" stroke="#784421" fill="#00aa88" />
  <circle cx="347.99" cy="223.32" r="26.50" stroke="#6600ff" fill="#c8ab37" />
  <rect x="252.24" y="114.51" width="53.00" height="46.60" stroke="#6600ff" fill="#c8ab37" />
  <circle cx="177.56" cy="478.10" r="28.25" stroke="#784421" fill="#00aa88" />
  <rect x="117.38" y="379.25" width="56.50" height="49.30" stroke="#784421" fill="#00aa88" />
  <circle cx="81.16" cy="14.12" r="30.00" stroke="#6600ff" fill="#c8ab37" />
  <rect x="160.34" y="302.23" width="60.00" height="52.00" stroke="#6600ff" fill="#c8ab37" />
  <circle cx="31.78" cy="320.61" r="31.75" stroke="#784421" fill="#00aa88" />
  <rect x="34.70" y="501.31" width="63.50" height="54.70" stroke="#784421" fill="#00aa88" />
  <circle cx="208.51" cy="41.37" r="33.50" stroke="#6600ff" fill="#c8ab37" />
  <rect x="127.96" y="98.15" width="67.00" height="57.40" stroke="#6600ff" fill="#c8ab37" />
  <circle cx="462.85" cy="246.06" r="35.25" stroke="#784421" fill="#00aa88" />
  <rect x="337.85" y="146.00" width="70.50" height="60.10" stroke="#784421" fill="#00aa88" />
  <circle cx="315.77" cy="367.90" r="37.00" stroke="#6600ff" fill="#c8ab37" />
  <rect x="86.91" y="452.83" width="74.00" height="62.80" stroke="#6600ff" fill="#c8ab37" />
  <circle cx="370.25" cy="204.43" r="38.75" stroke="#784421" fill="#00aa88" />
  <rect x="355.71" y="185.52" width="77.50" height="65.50" stroke="#784421" fill="#00aa88" />
</svg>
